<svg xmlns="http://www.w3.org/2000/svg" viewBox="0 0 335 340.4" width="130">
                        <title id="cldt-logo-title">Croatian Long Distance Trail Logo</title>
                        <path
                            d="M167.5.1C58.4 49.9-10.2 164.7 1.4 287.5c99.2 70.5 233.3 70.3 332.3-.5C345.1 164.3 276.5 49.9 167.5.1z"
                            fill="#fff" stroke="#1a1a18" strokeWidth="0.22" strokeMiterlimit="22.93"></path>
                        <path
                            d="M207.3 264.7c-19.2.5-21.4-11.3-45.9-11.3 21.2-3.4 29.8 9.8 46 9 6.8-.3 11.2-2.6 17.5-4.1-11.1-.7-17.7-6.1-24.1-4.6 9.1-3.1 16.9 3.5 28.7 3.7 4.1.1 9-.6 15.5.1-25.4.9-25.5 7.2-37.7 7.2m-122-4.1c11-8.7 23.2-7.5 31.2-6 11 2 16.2 5.5 31.5-.5-14.8 7.4-21.2 5.3-32.2 3.3-7.9-1.5-19-4.1-30.5 3.2m48-25.8c-15.3-6-20.5-2.5-31.5-.5-7.9 1.5-20.2 2.6-31.2-6 11.4 7.3 22.6 4.7 30.5 3.2 11.1-2 17.4-4.1 32.2 3.3m89.5.8c-11 2-17.3 4.1-32.2-3.3 15.3 6 20.5 2.5 31.5.5 7.9-1.5 20.2-2.7 31.2 6-11.4-7.3-22.5-4.7-30.5-3.2m52.9 18.1c-.4-11.5-1.6-22.9-3.6-34.1-6.2 3.2-13.4 4.2-20.3 2.7-7.4-1.4-11.6-5.8-26.5-.8 4.5 2 11.9 2.6 17.5 2.4-4.3 1.7-40.6-.2-32.1-9.3-12.1 1.3-22.6 9.5-36.1 7.5 6-.4 10.2-2 13.6-2.8-10.2-3.8-14-.5-21.7.9-4.4.9-8.9.8-13.3-.2 2.2 1 6.2 3.7 7.2 5.6-7.8-6-17.1-5.9-22.9-5.4-5.4.5-17.2 1.6-12.2-4.5-11.6 1.1-29.2 15.4-44.1 9.2 10 1.8 20-2 28.5-6.3-5.6-1.5-11.3-2.5-17-2.9-10.3-.5-20.1 6.2-30.5 8-1.6 10-2.6 20.2-2.9 30.3 67.6 36.4 148.9 36.2 216.4-.3m-158.2-9.6c24.5-.1 26.7-10 45.9-9.5 12.2 0 12.2 6.3 37.8 7.2-6.5.8-11.4 0-15.4.1-11.8.2-19.6 6.8-28.7 3.7 6.4 1.5 13-3.8 24.1-4.6-6.4-1.5-10.7-3.8-17.6-4.1-16.3-.8-24.9 10.6-46.1 7.2"
                            fillRule="evenodd" clipRule="evenodd" fill="#00a6c7"></path>
                        <path
                            d="M268.9 204.7c-14.6-57.3-51-106.8-101.4-137.8-50.6 31.2-87 81-101.5 138.6l5.9-3.8 3-6.4 6.5-4.1 5.1-8.1.3-3.2.3-2.5 1-1.6 1.9 3.3-.2 1.7 2.7 2.6 2.2 2.3-.6-3.2-2.2-2.4.4-1.7-1.9-3.3h.8l4.2-.3 1.9-1.1.9-1.1.8-2 1.7-.1-.1-1.8 1.2-.8-.1-1.8 1.3-2.7 1.4-1.1.6 1.4 1.1.9-1.1 5-1.7 3.6.4 5.9 1-4.9 1.8-3.3 2-6.2v-.9l-.5-.8.5-2.7 1.3-2.6.9-.1 1.6.9 1.5 3.3.3 5.1-1.1 3.2-.2 3.2-.6 2.6.5 6.4.4-5.2 1.5-3 .2-3.7 1.5-3.2.2-2.5-.1-1.5.4-1.5-.3-2h.5l.6 1.4.6 1.4.4.1 3.7 6.1 1.6-.1 2 3 1.2 1.3 1.7 5.8 2 4.7 2 6.1 1.2 4.4.7-4.3-2-6.8-1.7-3.9-1.8-7.1-1.2-1.2-2.8-3.9-1.9-.5-4.3-7.5-.8-1.8-.2-3.4-1.1-7.4-.2-2.5.9-1.8-.2-2.4 1.9-1.5 1.7-.1 1.3.9 1.2 2.4.8 1.9 2.4 4.8-.8 2-1.9 1.9-.9 3.2-1.8 2.3c.1.2 1.8-1.4 2.4-1.6.8-.3 1.6-2.4 1.7-2.5l2.4-2.2.6-1.8 3.9.9 2.9 1.9 2.4 1.3 3.8 1.1-3.1-2.1-1.9-2-3.7-2.7-3.8-.5-2.6-5.5.2-1.4.1-2.5.8-3.5.9-1.6.3-2.5.9-1.1 1.4-.6 1 .4 1.6 1.4 1.1 1.9 2.2 2.8 1.4-.6 1.6 1.4.2 2.6.1 1 .6 4.5 1.6 4.7-.2-5.6v-5.1l.2-2.9 1.6.8 3.6 3.5 1.8 5.2 3.3 4.3 4.5 3.6.5 2 2 2.7 5.8 4.6 5.3 4.6-4.4-5-5.3-5-1.7-2.6-.6-2.2-4.3-4.2-3.3-4.1-1.6-4.7-2.5-3-1.4-1.9.2-1 .1-11.4 1.4-1.6 2.8-1.7.9-1.6 1.5-.1 2-1.9 3 .8 2.5 2.6.8.7-1.1 2.8c-.2.7-.3 1.3-.3 2 0 .5.7 2.5.7 2.8.2.6.5 1.2.7 1.8l-1 1.9-1.4 5 .9 1.4-2.2 3.1 3.7-2.8-1-1.8 1.5-4.6 1.4-2.6-1-1.8-.5-2.5 1.3-3.4.3.2 1.1 1.8 1.4 1.2.3 1.2 3 6.2 3.3 7.7 1.3 6.8 5.6 9 2.6 1.8 2.4 5.3-1.3-6.7-2.6-1.8-5.3-8.1-1-6.9-5.5-13.7.4-.3 1.5-.1 1.1.9 1-.1 1.1.9 1.5-.1.5.4 1 .4 2.6 1.8 2.2 2.3 2.5.8 1.7 2.9 1-.1 1.7-.1-.9 6.9.9 5.4 4.4 5.8 2.5 5.1c.4.9.6 3 1.6 5.3l2.5 5.5 1.5 5.2-.3-5.4-2.4-5.3-1.4-5.4-2.5-5.7-3.5-5.3-1.3-4.7s.4-2.5.3-3l.1-3.5 1.2-3.1 1.5-.1 1.1.9 1.5.4 1.7 2.8.8 4.4 1-.1 1.6.9 1.2 2.9 2.7 2.8.5.2 1 3.8 2.2 3.7 2.2 8.4 1.9 6.3 2.8 4 1.3 5.4 3.5 6.7-2.3-7.2-.9-5.3-3-5.1s-.7-2.9-.9-3.4-2.5-10.4-2.5-10.4c-.6-1.2-1.3-2.4-2.1-3.5-.5-1.1-.8-2.2-1.1-3.3l1.4-1.6.8-2 2.5-.2 1.5-.1 1 .4 1 .4 1.1 1.4 1.6 2.9 1.7-.1 1.8 5.8 2.4 4.8.6 1.9.1.9 1.6 1.9.3 3.6 2.3 3.6.4 1.3-2.3 2.9c-.5.5-2.2 2.1-2.1 2.5-.3 1.4-.6 2.7-1.1 4l.9 4.1.6-4.1 1.2-3.7 4.6-5.3.6.9.7.4v6.5c0 .5-.2 6-.2 6l1.8-5.6s.2-4.5.1-6.2l.7.7 2.9 5.7 1.8 4.3 1.2 2.4 2.1 1.3 1 5.5.2 3.6 3.3 2.5-1.7-3.4-.2-2.8-1-4.4-.2-1.3 1-.8 2.3-2.6 1.4-.6.2 2.2 1.6 2.1 1.7 3.3 2.5 6.8 1.2 2.9 3.1 1.2 1.6-.1 2.4.8 1.6-.1 2.6 3.3 2.7.2-.3-1.4z"
                            fillRule="evenodd" clipRule="evenodd" fill="#5ec687"></path>
                        <path
                            d="M133.1 46.1c-.2-.3-.4-.7-.4-1.1-.1-.4-.1-.7 0-1.1.1-.4.2-.7.4-1 .2-.3.5-.6.8-.8l9-6.1c.3-.2.7-.4 1.1-.4.4-.1.7-.1 1.1 0 .4.1.7.2 1 .4.3.2.6.5.8.8l1.4 2.1-2.4 1.6-1.5-2.1-9 6.1 8.1 11.8 9-6.1-2.7-4-4.5 3.1-1.6-2.4 6.9-4.7 4.4 6.4c.2.3.4.7.4 1.1.1.4.1.7 0 1.1-.1.4-.2.7-.4 1-.2.3-.5.6-.8.8l-9 6.1c-.3.2-.7.4-1.1.4-.7.2-1.5 0-2.1-.4-.3-.2-.6-.5-.8-.8l-8.1-11.8zM126.9 72.7l-2.2 1.9L112 59.1l2.2-1.8 19.2 4.3-9.9-12 2.2-1.8 12.7 15.5-2.2 1.8-19.2-4.4zM98.6 75.7l10 10.2 8.2-8-10-10.2-8.2 8zm20.2.2c.3.3.5.6.6 1 .3.7.3 1.5 0 2.2-.1.4-.4.7-.6.9l-8.2 8c-.3.3-.6.5-1 .6-.7.3-1.5.3-2.1 0-.4-.2-.7-.4-.9-.6l-10-10.2c-.3-.3-.5-.6-.6-1-.1-.3-.2-.7-.2-1.1 0-.4.1-.7.2-1.1.2-.4.4-.7.6-.9l8.2-8c.5-.5 1.3-.8 2-.8.8 0 1.5.3 2 .9l10 10.1zM84.5 86.6l12.7 11.6 6.9-7.6 2.2 2-8.9 9.7-14.8-13.6zM80.4 125.4l-1.7 2.3-16.4-11.5 1.6-2.3 19.7-1-12.8-8.9 1.7-2.4 16.4 11.5-1.6 2.4-19.7 1zM64.1 137.9l3.4-6-9.4-1.3 6 7.3zm-8.6-10.4l21.3 3.1-1.4 2.5-4.9-.7-4.4 7.9 3.1 3.8-1.4 2.5L54.1 130l1.4-2.5zM47.09 143.428l1.277-2.603 18.044 8.856-1.278 2.603zM38.7 161.8l6.6-14.6 2.6 1.2-2.7 6 15.7 7-1.2 2.6-15.7-7-2.6 6zM46.1 178.9l2.2-6.5-9.5.3 7.3 6.2zm-10.3-8.7l21.5-.8-.9 2.7-4.9.2-3 8.6 3.8 3.2-.9 2.7L35 172.9l.8-2.7zM29.8 199.4l13.8 3.8 3-11.1-13.8-3.8-3 11.1zm17.6-10c.4.1.7.3 1 .5.6.4 1 1.1 1.1 1.9.1.4 0 .8-.1 1.1l-3 11.1c-.1.4-.3.7-.5 1-.2.3-.5.5-.8.7-.3.2-.6.3-1 .3s-.8 0-1.1-.1l-13.9-3.8c-.4-.1-.7-.3-1-.5-.6-.4-1-1.1-1.1-1.9 0-.4 0-.8.1-1.1l3-11.1c.2-.7.7-1.4 1.3-1.7.3-.2.6-.3 1-.3.4-.1.8 0 1.1.1l13.9 3.8zM32 222.4l1.3-7.9c.2-.6.1-1.2-.2-1.7-.4-.4-.9-.7-1.5-.8l-2-.3c-.9-.4-2 .1-2.3 1-.1.2-.1.4-.1.7l-1.3 7.9 6.1 1.1zm.1-13.1c2.8.5 4.1 1.9 4.1 4.3l8.6-2.4-.5 3.1-8.5 2.3-1 6.2 7.9 1.3-.5 2.8-19.8-3.4 1.8-10.8c.5-3.2 2.4-4.5 5.6-4l2.3.6zM23.1 246.7c-.4-.1-.7-.2-1-.3-.3-.2-.6-.4-.9-.7-.2-.3-.4-.6-.5-1-.1-.4-.2-.7-.1-1.1l.9-10.9c0-.4.1-.8.3-1.1.3-.7.9-1.2 1.6-1.4.4-.1.7-.2 1.1-.1l2.6.3-.2 2.9-2.6-.2-.9 10.9 14.3 1.1.9-10.9-2.6-.2.2-2.9 2.6.2c.4 0 .8.1 1.1.3.3.2.6.4.9.7.2.3.4.6.5 1 .1.4.2.7.1 1.1l-.9 10.9c0 .4-.1.8-.3 1.1-.3.7-.9 1.2-1.6 1.4-.4.1-.7.2-1.1.1l-14.4-1.2zM180.1 52l11.3-16.6 8.4 5.8c.8.5 1.5 1.2 2.1 2 1 1.5 1.4 3.3.9 5.1-.3 1-.7 1.9-1.2 2.7l-3.4 5c-.5.8-1.2 1.5-2 2.1-1.5 1-3.3 1.4-5.1.9-1-.3-1.9-.7-2.7-1.2l-8.3-5.8zm10 3.4c.9.7 2 1 3.1.8 1.1-.2 2.1-.9 2.6-1.9l3.4-5c.3-.5.6-1 .8-1.6.1-.5.2-1 .1-1.5s-.3-1-.6-1.4c-.3-.5-.8-.9-1.3-1.2l-6-4.1-8.1 11.8 6 4.1zM197.909 64.575l12.124-16.032 2.313 1.75-12.124 16.031zM212.3 64.9c-.3-.3-.5-.6-.7-.9-.2-.3-.2-.7-.3-1.1 0-.4 0-.7.1-1.1.1-.4.3-.7.6-1l3.8-4.3c.8-.9 2-1.2 3.1-.8.4.1.7.3 1 .6l7.2 6.5c.3.3.5.6.7.9.5 1 .3 2.3-.5 3.1l-1.7 1.9-2.1-1.9 1.7-1.9-7.2-6.5-3.8 4.3 7.2 6.5c.3.3.5.6.7.9.3.7.4 1.4.1 2.1-.1.4-.3.7-.6 1l-3.8 4.3c-.3.3-.6.5-.9.7-.3.2-.7.2-1.1.3-.4 0-.7 0-1.1-.2-.4-.1-.7-.3-1-.6l-7.5-6.7c-.3-.3-.5-.6-.7-.9-.2-.3-.2-.7-.3-1.1 0-.4.1-.7.2-1.1.1-.4.3-.7.6-1l1.7-1.9 2.1 1.9-1.7 1.9 7.5 6.7 3.8-4.3-7.1-6.3zM232.5 67.8l11.4 11.3-2 2-4.7-4.6-12.1 12.2-2-2 12.1-12.2-4.7-4.7zM238.8 92.4l4.4 5.2 4.5-8.3-8.9 3.1zm12.8-4.5l-10.2 18.9-1.9-2.2 2.4-4.4-5.9-6.9-4.7 1.6-1.9-2.2 20.3-7.1 1.9 2.3zM245.3 111.8l-1.6-2.3 16.5-11.4 1.6 2.4-6 18.7 12.8-8.8 1.7 2.4-16.6 11.3-1.6-2.3 6-18.8zM271.1 119.3c.3-.2.7-.3 1.1-.4.7-.1 1.5 0 2.1.5.3.2.6.5.8.8l5.8 9.2c.2.3.3.7.4 1.1.2 1.1-.3 2.3-1.3 2.9l-2.2 1.4-1.5-2.4 2.2-1.4-5.8-9.2-12.1 7.6 5.8 9.2 2.2-1.4 1.5 2.4-2.2 1.4c-.3.2-.7.3-1.1.4-.4.1-.7.1-1.1 0-.4-.1-.7-.2-1-.5-.3-.2-.6-.5-.8-.8l-5.7-9.3c-.2-.3-.3-.7-.4-1.1-.1-.7 0-1.5.5-2.1.2-.3.5-.6.8-.8l12-7.5zM285.3 138.1l6.4 13.1-2.6 1.3-5.1-10.6-5.2 2.5 4.4 9-2.6 1.2-4.4-9-5.1 2.5 5.1 10.6-2.6 1.2-6.4-13.2zM297 163.7l5.2 15.2-2.7.9-2.2-6.2-16.2 5.5-.9-2.7 16.2-5.5-2.1-6.3zM295.5 188.4l2.2 7.7c.1.6.5 1.1 1 1.5.5.2 1.2.2 1.7 0l1.9-.6c1-.1 1.8-.9 1.7-1.9 0-.3-.1-.5-.2-.7l-2.2-7.7-6.1 1.7zm5.6 11.9c-2.7.8-4.5 0-5.6-2.1l-6.8 5.9-.9-3.1 6.7-5.8-1.7-6-7.8 2.2-.8-2.8 19.3-5.5 3 10.6c.9 3.1-.2 5.1-3.4 6l-2 .6zM297.7 211.2l1.2 6.8 8.1-4.9-9.3-1.9zm13.2 2.7l-18.5 11-.5-2.8 4.2-2.5-1.5-8.9-4.9-1-.5-2.8 21.1 4.2.6 2.8zM292.88 228.328l19.973-2.243.323 2.882-19.973 2.243zM314 237.5l-17.1 1.4.8 10.3-2.8.3-1.1-13.2 20-1.6zM54.2 279.5l3.3 1.5 1.9-4.2 2.5 1.2-1.9 4.2 4.4 2.1-1.2 2.5-4.4-2.1-4 8.5 4.4 2.1-1.2 2.5-4.4-2.1-.9-.6-.6-.9c-.1-.3-.2-.7-.2-1 0-.4.1-.7.2-1.1l4-8.5-3.3-1.6 1.4-2.5zM74.6 304.5l-2.6-1 4.3-11.4-7.2-2.7-4.3 11.4-2.6-1 7.3-19.3 2.6 1-2.9 7.8c.1-.3.3-.6.6-.9.2-.2.5-.4.8-.6.3-.1.7-.2 1-.2.4 0 .7 0 1.1.2l4.6 1.7c.4.1.7.3.9.6l.6.9c.1.3.2.7.2 1 0 .4-.1.7-.2 1.1l-4.2 11.4zM276.4 294.7l6.4-3.1-1.6-3.4-6.4 3.1 1.6 3.4zm-4.1-2.2c-.2-.3-.2-.7-.2-1.1 0-.3 0-.7.1-1 .1-.3.3-.7.5-.9.2-.3.5-.5.9-.6l6.4-3.1-1.2-2.6-8.1 3.9-1.2-2.5 8.1-3.9c.3-.2.7-.3 1.1-.3.3 0 .7.1 1 .2.3.1.7.3.9.5.3.2.5.5.6.9l5.2 11-2.5 1.2-1.1-2.3c.1.3.2.7.2 1 0 .3-.1.7-.2 1-.1.3-.3.6-.5.9-.2.3-.5.5-.8.6l-3.9 1.9c-.3.2-.7.2-1.1.2-.3 0-.7 0-1-.1-.3-.1-.6-.3-.9-.6-.3-.2-.5-.5-.7-.9l-1.6-3.4zM259.9 282.4l2.8-1.2 1.1 2.6-2.8 1.2-1.1-2.6zm4.9 4.1l5.9 13.7-2.5 1.1-5.9-13.7 2.5-1.1zM85.4 295.4l-3.9 11.5-2.6-.9 4.7-14.1 2.6.9-.8 2.5c.1-.3.3-.7.6-.9.5-.5 1.1-.8 1.8-.9.4 0 .7 0 1.1.1l2.8.9c.3.1.7.3.9.5.3.2.5.5.6.9.1.3.2.7.3 1 0 .4 0 .7-.2 1.1l-.8 2.4-2.6-.9.8-2.4-5.3-1.7zM247.9 293.1l3.4-1.3-1.6-4.3 2.6-1 1.6 4.3 4.6-1.7 1 2.6-4.6 1.8 3.3 8.8 4.6-1.7 1 2.6-4.6 1.7c-.3.1-.7.2-1.1.2-.7 0-1.4-.3-1.9-.9-.3-.3-.5-.6-.6-.9l-3.4-8.8-3.4 1.3-.9-2.7zM96.3 296.2l2.7.7-2.9 11.8 7.5 1.8 2.9-11.8 2.7.7-3.6 14.5-2.7-.6.6-2.5c-.2.6-.7 1.2-1.3 1.5-.3.2-.6.3-.9.3h-1l-4.8-1.2c-.4-.1-.7-.2-1-.5-.6-.4-1-1.1-1.1-1.8-.1-.4-.1-.7 0-1.1l2.9-11.8zM239.4 308.2l6.8-2-1.1-3.6-6.8 2 1.1 3.6zm-3.7-2.8c-.1-.3-.1-.7-.1-1.1 0-.3.1-.7.3-1 .2-.3.4-.6.7-.8.3-.2.6-.4 1-.5l6.8-2-.8-2.8-8.6 2.6-.8-2.6 8.6-2.6c.4-.1.7-.2 1.1-.1.3.1.7.2 1 .3.3.2.6.4.8.7.2.3.4.6.5 1l3.5 11.6-2.6.8-.7-2.4c.1.3.1.7 0 1 0 .3-.2.7-.4.9-.2.3-.4.6-.7.8-.3.2-.6.4-.9.5l-4.2 1.2c-.4.1-.7.1-1.1.1-.7-.1-1.4-.4-1.8-1-.2-.3-.4-.6-.5-1l-1.1-3.6zM131.5 318.7l-2.7-.5 2-12-7.6-1.3-2 12-2.7-.5 3.4-20.3 2.7.5-1.4 8.2c.1-.4.2-.7.4-1 .2-.3.4-.5.7-.8.3-.2.6-.3.9-.4.4-.1.7-.1 1.1 0l4.9.8c.4.1.7.2 1 .4.3.2.5.5.8.7.2.3.4.6.4 1 .1.4.1.7 0 1.1l-1.9 12.1zM220.7 303.1l2 9.2 7.2-1.5-2-9.2-7.2 1.5zm11.9 7.1c.1.4.1.7 0 1.1-.1.4-.2.7-.4 1-.2.3-.4.5-.7.7-.3.2-.6.4-1 .5l-7.2 1.5c-.4.1-.7.1-1.1 0-.7-.1-1.3-.5-1.7-1.1-.2-.3-.4-.6-.4-1l-2-9.2c-.1-.4-.1-.7 0-1.1.1-.4.2-.7.4-1 .2-.3.5-.6.7-.8.3-.2.6-.3 1-.4l7.2-1.5c.4-.1.7-.1 1.1 0 .4.1.7.2 1 .4.3.2.5.5.7.8.2.3.4.6.5 1l1.9 9.1zM137.9 298.6l3 .3-.3 2.9-3-.3.3-2.9zm2.4 6l-1.4 14.8-2.7-.2 1.4-14.8 2.7.2zM153.5 320.6l-6.8-6.8-.3 6.4-2.8-.2 1.2-20.6 2.8.2-.7 11.6 6.9-5.5 3.8.2-8.4 6.7 8.1 8.2zM206.7 305.8l2.1 12-2.7.5-2.6-14.7 2.7-.5.5 2.7c-.1-.4-.1-.8.1-1.1.2-.7.6-1.3 1.2-1.6.3-.2.6-.3 1-.4l2.9-.5c.4-.1.7-.1 1.1 0 .4.1.7.2 1 .4.3.2.5.5.7.7.2.3.3.6.4 1l.5 2.5-2.7.5-.5-2.5-5.7 1zM162.2 308.7v3.4l7.1.1v-3.4l-7.1-.1zm9.8 6.2l-9.9-.1v3.3l9.9.1v2.8l-9.9-.1c-.4 0-.7-.1-1.1-.2-.7-.3-1.2-.8-1.4-1.5-.1-.3-.2-.7-.2-1.1l.1-9.4c0-.4.1-.7.2-1.1.1-.3.3-.6.6-.9l.9-.6c.3-.1.7-.2 1.1-.2l7.1.1c.4 0 .7.1 1.1.2.6.3 1.2.8 1.4 1.5.1.3.2.7.2 1.1l-.1 6.1zM183.7 303.3c0-.4 0-.8.1-1.1.1-.4.3-.7.5-1 .2-.3.5-.5.9-.7.3-.2.7-.3 1.1-.3l10.8-1c.4 0 .8 0 1.1.1 1.1.3 1.9 1.3 2 2.5l.2 2.6-2.9.3-.2-2.6-10.8 1 1.4 14.3 10.8-1-.2-2.6 2.9-.3.2 2.6c0 .4 0 .8-.1 1.1-.1.4-.3.7-.5 1-.2.3-.5.5-.9.7-.3.2-.7.3-1.1.3l-10.8 1c-.4 0-.8 0-1.1-.1-.7-.2-1.3-.7-1.7-1.4-.2-.3-.3-.7-.3-1.1l-1.4-14.3z"></path>
                    </svg>